<svg width="40" height="32" viewBox="0 0 40 32" fill="none" xmlns="http://www.w3.org/2000/svg">
<rect width="39.3437" height="31.3292" rx="15.6646" transform="matrix(-1 0 0 1 39.3438 0)" fill="white" fill-opacity="0.49"/>
<path d="M19.6722 24.1647C14.951 24.1647 11.1237 20.359 11.1237 15.6645C11.1237 10.97 14.951 7.16431 19.6722 7.16431C24.3934 7.16431 28.2207 10.97 28.2207 15.6645C28.2207 20.359 24.3934 24.1647 19.6722 24.1647Z" stroke="#1E1B4B" stroke-width="1.7097" stroke-linecap="round" stroke-linejoin="round"/>
<path d="M19.6724 7.16431C21.8675 9.45608 23.0918 12.4996 23.0918 15.6645C23.0918 18.8293 21.8675 21.8729 19.6724 24.1647C17.4774 21.8729 16.253 18.8293 16.253 15.6645C16.253 12.4996 17.4774 9.45608 19.6724 7.16431Z" stroke="#1E1B4B" stroke-width="1.7097" stroke-linecap="round" stroke-linejoin="round"/>
<path d="M28.2207 15.6646H11.1237" stroke="#1E1B4B" stroke-width="1.7097" stroke-linecap="round" stroke-linejoin="round"/>
</svg>
